<?xml version="1.0" encoding="utf-8"?>
<!DOCTYPE svg PUBLIC "-//W3C//DTD SVG 1.1//EN" "http://www.w3.org/Graphics/SVG/1.1/DTD/svg11.dtd" [
	<!ENTITY ns_extend "http://ns.adobe.com/Extensibility/1.0/">
	<!ENTITY ns_ai "http://ns.adobe.com/AdobeIllustrator/10.0/">
	<!ENTITY ns_graphs "http://ns.adobe.com/Graphs/1.0/">
	<!ENTITY ns_vars "http://ns.adobe.com/Variables/1.0/">
	<!ENTITY ns_imrep "http://ns.adobe.com/ImageReplacement/1.0/">
	<!ENTITY ns_sfw "http://ns.adobe.com/SaveForWeb/1.0/">
	<!ENTITY ns_custom "http://ns.adobe.com/GenericCustomNamespace/1.0/">
	<!ENTITY ns_adobe_xpath "http://ns.adobe.com/XPath/1.0/">
]>
<svg version="1.1" id="Layer_1" xmlns:x="&ns_extend;" xmlns:i="&ns_ai;" xmlns:graph="&ns_graphs;"
	 xmlns="http://www.w3.org/2000/svg" xmlns:xlink="http://www.w3.org/1999/xlink" x="0px" y="0px" width="97.9201px"
	 height="97.5905px" viewBox="10.799 12.9 979.201 975.905" enable-background="new 10.799 12.9 979.201 975.905"
	 xml:space="preserve">
<metadata>
<sfw  xmlns="&ns_sfw;">
	<slices></slices>
	<sliceSourceBounds  height="975.904" width="979.201" x="-289.701" y="-288.304" bottomLeftOrigin="true"></sliceSourceBounds>
</sfw>
</metadata>
<g transform="translate(0.000000,1000.000000) scale(0.100000,-0.100000)">
	<path fill="#1cabe2" d="M3740,9867.001c-400-19.004-878.999-132.002-1270-300c-265-113.003-398.999-186.001-635-343.003
		C1392.998,8931,1051.001,8589.999,752.998,8144.999C613.999,7937.997,526.001,7776,426.001,7543.998
		c-217.002-506.001-318.003-991.001-318.003-1533.999C107.002,5422.997,230,4870.996,481.001,4344.003
		C767.998,3740,1252.002,3177.998,1800,2812.998C2330,2460,2890,2250,3515,2170.996c255.996-32.998,674.004-32.998,930,0
		c497.998,63.008,992.002,222.002,1415.996,455l76.006,42.002L7130.995,1475C7787.997,817.998,8349.999,260.996,8379.999,237.002
		c65.996-52.998,120-82.002,197.002-102.998c80-23.008,128.994-28.008,137.002-15C8717.997,125,8732.001,130,8744.999,130
		c37.998,0,127.002,37.002,179.004,74.004C8987.997,250,9762.001,1020,9802.001,1077.998
		c38.994,57.002,77.002,147.002,77.998,184.004c0,15,5,30,10,32.998c5.996,2.998,10,19.004,10,35s-4.004,32.002-10,35
		c-5,2.998-10,20-10,37.002c0,42.998-45.996,142.998-95.996,207.998c-48.008,62.998-2404.004,2420-2419.004,2420
		c-5.996,0-15.996,4.004-24.004,9.004c-10.996,6.992,4.004,45,76.006,187.998c102.998,200.996,143.994,297.002,215,497.998
		c317.998,899.003,285.996,1927.001-87.002,2800c-264.004,618.999-682.998,1153.999-1225,1565
		C5707.001,9553.998,5007.998,9812.001,4197.998,9871 M4305,8874.999c165.996-20,272.998-38.999,410-75
		c429.004-112.998,840-330,1170-618.999c92.998-81.001,277.002-273.003,350-366.001c230-288.999,412.002-637.998,517.002-990
		c103.994-351.001,142.001-765,102.998-1130.996c-57.001-538.008-270-1053.007-612.001-1481.005
		c-83.994-105.996-300.996-327.998-397.998-410c-617.002-515-1422.998-755.996-2220-662.998
		c-417.002,49.004-872.998,217.002-1225,452.998c-677.998,454.004-1133.999,1151.006-1268.999,1942.001
		c-141.001,827.002,81.997,1657.002,622.998,2310c82.002,100,315,326.001,423.003,412.002c375,297.998,837.002,510,1285,588.999
		C3724.004,8892.001,4060.996,8902.997,4305,8874.999z"/>
	<path fill="#1cabe2" d="M2100,6034.999v-585h1935h1935v585v585H4035H2100V6034.999z"/>
</g>
</svg>
